<svg id="Layer_1" data-name="Layer 1" xmlns="http://www.w3.org/2000/svg" xmlns:xlink="http://www.w3.org/1999/xlink" viewBox="0 0 140.89 52.85"><defs><style>.cls-1{fill:url(#linear-gradient);}.cls-2{fill:url(#linear-gradient-2);}.cls-3{fill:url(#linear-gradient-3);}.cls-4{fill:url(#linear-gradient-4);}.cls-5{fill:url(#linear-gradient-5);}.cls-6{fill:url(#linear-gradient-6);}.cls-7{fill:url(#linear-gradient-7);}.cls-8{fill:url(#linear-gradient-8);}.cls-9{fill:url(#linear-gradient-9);}.cls-10{fill:url(#linear-gradient-10);}.cls-11{fill:url(#linear-gradient-11);}.cls-12{fill:url(#linear-gradient-12);}.cls-13{fill:url(#linear-gradient-13);}.cls-14{fill:url(#linear-gradient-14);}.cls-15{fill:url(#linear-gradient-15);}.cls-16{fill:url(#linear-gradient-16);}.cls-17{fill:url(#linear-gradient-17);}.cls-18{fill:url(#linear-gradient-18);}.cls-19{fill:none;clip-rule:evenodd;}.cls-20{clip-path:url(#clip-path);}.cls-21{fill:#e2865e;}.cls-22{mask:url(#mask);}.cls-23{fill:#fff;}.cls-23,.cls-29,.cls-41,.cls-48{fill-rule:evenodd;}.cls-24{clip-path:url(#clip-path-2);}.cls-25{fill:#dd7548;}.cls-26{clip-path:url(#clip-path-3);}.cls-27{clip-path:url(#clip-path-4);}.cls-28{mask:url(#mask-2);}.cls-29,.cls-41,.cls-48{fill:#010101;}.cls-30{clip-path:url(#clip-path-5);}.cls-31{fill:#e07e53;}.cls-32{mask:url(#mask-3);}.cls-33{mask:url(#mask-4);}.cls-34{mask:url(#mask-5);}.cls-35{mask:url(#mask-6);}.cls-36{mask:url(#mask-7);}.cls-37{clip-path:url(#clip-path-6);}.cls-38{mask:url(#mask-8);}.cls-39{clip-path:url(#clip-path-7);}.cls-40{mask:url(#mask-9);}.cls-41{opacity:0.2;}.cls-42{clip-path:url(#clip-path-8);}.cls-43{mask:url(#mask-10);}.cls-44{mask:url(#mask-11);}.cls-45{mask:url(#mask-12);}.cls-46{mask:url(#mask-13);}.cls-47{mask:url(#mask-14);}.cls-48{opacity:0.15;}.cls-49{mask:url(#mask-15);}.cls-50{mask:url(#mask-16);}.cls-51{mask:url(#mask-17);}.cls-52{mask:url(#mask-18);}</style><linearGradient id="linear-gradient" x1="-36.64" y1="102.08" x2="-33.99" y2="106.68" gradientTransform="translate(164.28 -90.84)" gradientUnits="userSpaceOnUse"><stop offset="0" stop-color="#4d4d4d"/><stop offset="1"/></linearGradient><linearGradient id="linear-gradient-2" x1="-9.18" y1="106.17" x2="-39.44" y2="85.31" gradientTransform="translate(44.95 -68.06)" gradientUnits="userSpaceOnUse"><stop offset="0" stop-color="#262626"/><stop offset="1"/></linearGradient><linearGradient id="linear-gradient-3" x1="-37.12" y1="85.68" x2="-37.12" y2="120.69" gradientTransform="translate(149.85 -80.79)" gradientUnits="userSpaceOnUse"><stop offset="0" stop-color="#333"/><stop offset="1"/></linearGradient><linearGradient id="linear-gradient-4" x1="-37.13" y1="86.06" x2="-37.13" y2="113.43" gradientTransform="translate(149.85 -80.79)" xlink:href="#linear-gradient-2"/><linearGradient id="linear-gradient-5" x1="-22.69" y1="65.3" x2="-22.69" y2="111.48" gradientTransform="translate(85.39 -61.02)" gradientUnits="userSpaceOnUse"><stop offset="0" stop-color="#1a1a1a"/><stop offset="0.4" stop-color="#4d4d4d"/><stop offset="1"/></linearGradient><linearGradient id="linear-gradient-6" x1="-31.33" y1="64.41" x2="-31.33" y2="108.22" gradientTransform="translate(137.52 -61.02)" gradientUnits="userSpaceOnUse"><stop offset="0" stop-color="#1a1a1a"/><stop offset="0.46" stop-color="#4d4d4d"/><stop offset="1"/></linearGradient><linearGradient id="linear-gradient-7" x1="-36.61" y1="101.38" x2="-36.61" y2="116.07" gradientTransform="translate(163.51 -93.05)" gradientUnits="userSpaceOnUse"><stop offset="0" stop-color="#1a1a1a"/><stop offset="1"/></linearGradient><linearGradient id="linear-gradient-8" x1="-32.76" y1="81.88" x2="-32.76" y2="118.38" gradientTransform="translate(90.81 -74.61)" xlink:href="#linear-gradient"/><linearGradient id="linear-gradient-9" x1="-34.81" y1="72.71" x2="-34.81" y2="115.54" gradientTransform="translate(140.99 -63.58)" gradientUnits="userSpaceOnUse"><stop offset="0"/><stop offset="0.45" stop-color="#333"/><stop offset="1"/></linearGradient><linearGradient id="linear-gradient-10" x1="-46.84" y1="111.77" x2="-20.68" y2="111.76" gradientTransform="translate(117.53 -89.39)" gradientUnits="userSpaceOnUse"><stop offset="0"/><stop offset="0.49" stop-color="#4d4d4d"/><stop offset="1"/></linearGradient><linearGradient id="linear-gradient-11" x1="-31.24" y1="113.58" x2="-31.24" y2="98.28" gradientTransform="translate(114.53 -78.85)" gradientUnits="userSpaceOnUse"><stop offset="0" stop-color="#404040"/><stop offset="1"/></linearGradient><linearGradient id="linear-gradient-12" x1="-33.62" y1="86.3" x2="-33.62" y2="115.44" gradientTransform="translate(135.93 -78.85)" xlink:href="#linear-gradient-11"/><linearGradient id="linear-gradient-13" x1="-34.74" y1="85.66" x2="-34.74" y2="115.64" gradientTransform="translate(138.18 -78.87)" xlink:href="#linear-gradient-11"/><linearGradient id="linear-gradient-14" x1="-37.26" y1="89.89" x2="-37.26" y2="123.22" gradientTransform="translate(114.53 -82)" xlink:href="#linear-gradient-11"/><linearGradient id="linear-gradient-15" x1="-37.26" y1="91.29" x2="-37.26" y2="126.5" gradientTransform="translate(114.53 -83.16)" xlink:href="#linear-gradient-11"/><linearGradient id="linear-gradient-16" x1="-33.07" y1="67.35" x2="-33.07" y2="113.91" gradientTransform="translate(140.99 -61.02)" xlink:href="#linear-gradient-7"/><linearGradient id="linear-gradient-17" x1="-25.02" y1="75.7" x2="-25.01" y2="113.87" gradientTransform="translate(90.04 -61.02)" xlink:href="#linear-gradient-2"/><linearGradient id="linear-gradient-18" x1="-33.37" y1="98.75" x2="-37.79" y2="115.26" gradientTransform="translate(161.37 -91.31)" xlink:href="#linear-gradient-2"/><clipPath id="clip-path"><path class="cls-19" d="M134.69,8.53c-10.12.93-14.81,12.07-14.81,12.07a4.48,4.48,0,0,1,2.09.19c3.2.75,3.59.05,7.41.45a3.56,3.56,0,0,1,2.69.65c3.48,2.42,5,.58,6.61-1.81a7.62,7.62,0,0,1,1.73-1.8c.48-.67.3-2-1.91-3.67-2-1.72.18-3.61-3.81-6.08"/></clipPath><mask id="mask" x="119.88" y="8.53" width="20.75" height="14.5" maskUnits="userSpaceOnUse"><rect class="cls-1" x="119.88" y="8.53" width="20.75" height="14.5"/></mask><clipPath id="clip-path-2"><path class="cls-19" d="M105.94,43,113,52.85c.52,0,2,0,3.6,0v0h5.88a4.2,4.2,0,0,0-4.21-4.21h-1.68l-4.08-7.16-.29-13.28-.06.08c-2.08,2.84-4.29,2.77-6.62,4.7h0l-.11.09c-.4.65-.83,1.3-1.27,2Z"/></clipPath><clipPath id="clip-path-3"><path class="cls-19" d="M66.73,41.6a75.45,75.45,0,0,0,15-7.26,38.46,38.46,0,0,1-11.57-4l.15-.31-.61-.35a18.41,18.41,0,0,1-10.83,9.84c2.65,4,9.13,13.28,9,13.28h9.79c-.25-2.3-1.7-4.1-5.15-4.21l-1,0c-.23-.33-2.68-3.92-4.75-7m4.75,7v0S71.21,48.61,71.48,48.61Z"/></clipPath><clipPath id="clip-path-4"><path class="cls-19" d="M49.45,24.55S43.84,13,55.09,6.44C37.51,12.32,31.94,32.84,22,38.68,17,41.41,11.46,40.75,8.46,37,1.8,28.79,9.78,18.54,19.15,20.93c4.56,1.83,6.41-4.35,0-5.13C9.08,14.25,0,20.56.58,31.11,1,38.25,5.92,45,13.47,45.7c14.36,1.39,18.91-11.31,27.39-20.16,3.36-3.51,6.76-3.07,8.59-1"/></clipPath><mask id="mask-2" x="0.55" y="15.56" width="48.9" height="30.25" maskUnits="userSpaceOnUse"><rect class="cls-2" x="0.55" y="15.56" width="48.9" height="30.25"/></mask><clipPath id="clip-path-5"><path class="cls-19" d="M70.14,30.39a38.46,38.46,0,0,0,11.57,4A75.27,75.27,0,0,0,94.52,35c2-11.43,1.25-24.57,18.57-29h0c-4.87-.14-10.25,0-14.64,2.38s-7.32.23-12.56-.31l-1.49-.17c-12.6,2.75-10,13.78-14.27,22.5"/></clipPath><mask id="mask-3" x="70.14" y="20.26" width="26.31" height="14.76" maskUnits="userSpaceOnUse"><rect class="cls-11" x="70.14" y="20.26" width="26.31" height="14.76"/></mask><mask id="mask-4" x="91.53" y="5.99" width="21.56" height="29.02" maskUnits="userSpaceOnUse"><rect class="cls-12" x="91.53" y="5.99" width="21.56" height="29.02"/></mask><mask id="mask-5" x="93.78" y="5.99" width="19.32" height="29.01" maskUnits="userSpaceOnUse"><rect class="cls-13" x="93.78" y="5.99" width="19.32" height="29.01"/></mask><mask id="mask-6" x="70.14" y="7.89" width="14.28" height="23.98" maskUnits="userSpaceOnUse"><rect class="cls-14" x="70.14" y="7.89" width="14.28" height="23.98"/></mask><mask id="mask-7" x="70.14" y="7.89" width="14.28" height="22.82" maskUnits="userSpaceOnUse"><rect class="cls-15" x="70.14" y="7.89" width="14.28" height="22.82"/></mask><clipPath id="clip-path-6"><path class="cls-19" d="M93.12,40.81l6.74,12c3.39-.09,6.86,0,10.26,0a4.21,4.21,0,0,0-4.21-4.21H103.6l-2.21-7.18c.76-4.63,3.72-7.1,5-10.22,3.38-8.07,1.45-22,12.09-26.09l.43-.16.31-.09C91.82,8,97.67,27.33,93.12,40.81"/></clipPath><mask id="mask-8" x="96.59" y="4.9" width="22.66" height="47.95" maskUnits="userSpaceOnUse"><rect class="cls-16" x="96.59" y="4.9" width="22.66" height="47.95"/></mask><clipPath id="clip-path-7"><path class="cls-19" d="M55.09,6.44C43.84,13,49.45,24.55,49.45,24.55c2.82,3.2,1.95,10.27-8.46,12.86L51.36,52.85H61.44a4.21,4.21,0,0,0-4.21-4.21H55L50.1,41.48a44.7,44.7,0,0,0,8.75-1.91c20.73-6.82,7.5-27.73,25.56-31.68-7.78-1-17.14-3.9-24.92-2.56a29.49,29.49,0,0,0-4.4,1.11"/></clipPath><mask id="mask-9" x="45.64" y="7.86" width="38.77" height="44.98" maskUnits="userSpaceOnUse"><rect class="cls-17" x="45.64" y="7.86" width="38.77" height="44.98"/></mask><clipPath id="clip-path-8"><path class="cls-19" d="M118.94,5c-11.16,3.85-9.08,18.18-12.54,26.28a13.5,13.5,0,0,1-1,1.8c2.39-2,4.65-1.9,6.79-4.87A60.46,60.46,0,0,1,118,21.53a3.53,3.53,0,0,1,1.92-.94h-.05s4.69-11.14,14.81-12.07c-.43-.27-1.78-2-3-2.53-3.09-1.4-.76-2.59-2.06-6-3.32.67-4.29,2.33-5.55,3.51-1.94,1.84-3.06.86-5,1.42Z"/></clipPath><mask id="mask-10" x="116.97" y="8.5" width="17.72" height="14.05" maskUnits="userSpaceOnUse"><rect class="cls-18" x="116.97" y="8.5" width="17.72" height="14.05"/></mask><mask id="mask-11" x="105.45" y="4.76" width="14.55" height="28.31" maskUnits="userSpaceOnUse"><rect class="cls-3" x="105.45" y="4.76" width="14.55" height="28.31"/></mask><mask id="mask-12" x="105.45" y="4.76" width="14.55" height="28.31" maskUnits="userSpaceOnUse"><rect class="cls-4" x="105.45" y="4.76" width="14.55" height="28.31"/></mask><mask id="mask-13" x="40.99" y="4.98" width="43.43" height="47.87" maskUnits="userSpaceOnUse"><rect class="cls-5" x="40.99" y="4.98" width="43.43" height="47.87"/></mask><mask id="mask-14" x="93.12" y="4.9" width="26.13" height="47.95" maskUnits="userSpaceOnUse"><rect class="cls-6" x="93.12" y="4.9" width="26.13" height="47.95"/></mask><mask id="mask-15" x="119.11" y="8.53" width="15.58" height="12.29" maskUnits="userSpaceOnUse"><rect class="cls-7" x="119.11" y="8.53" width="15.58" height="12.29"/></mask><mask id="mask-16" x="46.41" y="8.82" width="23.27" height="30.44" maskUnits="userSpaceOnUse"><rect class="cls-8" x="46.41" y="8.82" width="23.27" height="30.44"/></mask><mask id="mask-17" x="96.59" y="6.06" width="19.18" height="44.22" maskUnits="userSpaceOnUse"><rect class="cls-9" x="96.59" y="6.06" width="19.18" height="44.22"/></mask><mask id="mask-18" x="73.13" y="20.28" width="23.31" height="4.2" maskUnits="userSpaceOnUse"><rect class="cls-10" x="73.13" y="20.28" width="23.31" height="4.2"/></mask></defs><g class="cls-20"><rect class="cls-21" x="119.88" y="8.53" width="21.01" height="15.78"/></g><g class="cls-22"><path class="cls-23" d="M119.88,20.6a4.48,4.48,0,0,1,2.09.19c3.2.75,3.59.05,7.41.45a3.56,3.56,0,0,1,2.69.65c3.48,2.42,5,.58,6.61-1.81a7.62,7.62,0,0,1,1.73-1.8c.48-.67.3-2-1.91-3.67-2-1.72.18-3.61-3.81-6.08-10.12.93-14.81,12.07-14.81,12.07M138.24,15a6,6,0,0,1,1.83,2,1.1,1.1,0,0,1,0,1,4.67,4.67,0,0,1-.53.42,6.17,6.17,0,0,0-1.21,1.39,6.61,6.61,0,0,1-2.51,2.6c-1.2.48-2.52-.22-3.49-.9a4,4,0,0,0-2.94-.73,21.1,21.1,0,0,0-2.51-.13c-.58,0-1.15,0-1.73,0a11.69,11.69,0,0,1-3.06-.35,5.55,5.55,0,0,0-1.51-.25c.19-.38.39-.75.59-1.1a24.35,24.35,0,0,1,2.67-3.86c2.78-3.3,6.38-5.74,10.76-6.19a5.11,5.11,0,0,1,2.07,2.15,11,11,0,0,1,.46,2,3.19,3.19,0,0,0,1.1,1.79h0Z"/></g><g class="cls-24"><rect class="cls-25" x="104.18" y="28.2" width="18.33" height="24.64"/></g><g class="cls-26"><rect class="cls-25" x="58.85" y="29.73" width="22.87" height="23.11"/></g><g class="cls-27"><rect class="cls-25" y="6.44" width="55.09" height="40.66"/></g><g class="cls-28"><path class="cls-29" d="M49.45,24.55a16.51,16.51,0,0,1-1.33-7.95c-10.66,1.77-17.52,26.79-32.85,27C8.71,43.74,4,38.82,3.11,32.93c-1.25-8,3-16.91,16.73-14.22,4,.87,2.75-1.35,2.71-1.45A5.53,5.53,0,0,0,19.1,15.8C9.08,14.25,0,20.56.58,31.11,1,38.25,5.92,45,13.47,45.7c14.36,1.39,18.91-11.31,27.39-20.16,3.36-3.51,6.76-3.07,8.59-1"/></g><g class="cls-30"><rect class="cls-31" x="70.14" y="5.85" width="42.96" height="29.27"/></g><g class="cls-32"><path class="cls-29" d="M70.14,30.39a38.46,38.46,0,0,0,11.57,4A75.27,75.27,0,0,0,94.52,35c.67-3.94,1-8.09,1.92-12-10.75,3.29-20.86-1.15-23.24-2.71-.82,3.33-1.46,6.89-3.06,10.13"/></g><g class="cls-33"><path class="cls-29" d="M91.53,35c1,0,2,0,3,0,2-11.43,1.25-24.57,18.57-29h0c-17.65,1-19.2,16.51-21.57,29"/></g><g class="cls-34"><path class="cls-29" d="M93.78,35l.74,0c2-11.43,1.25-24.57,18.57-29h0A18.84,18.84,0,0,0,97.66,16.92a42.27,42.27,0,0,0-3,11.79c-.29,2.06-.55,4.19-.92,6.29"/></g><g class="cls-35"><path class="cls-29" d="M70.14,30.39c1,.55,3,1.47,3,1.47,3-5.68.64-18,11.22-24-12.6,2.75-10,13.78-14.27,22.5"/></g><g class="cls-36"><path class="cls-29" d="M70.14,30.39c.17.1.36.21.56.31a22.91,22.91,0,0,0,1.19-2.88c.83-2.43,1.33-4.94,1.94-7.43,2.4-11,10.58-12.5,10.58-12.5-12.6,2.75-10,13.78-14.27,22.5"/></g><g class="cls-37"><rect class="cls-25" x="91.82" y="4.9" width="27.43" height="47.95"/></g><g class="cls-38"><path class="cls-23" d="M110.12,52.85a4.21,4.21,0,0,0-4.21-4.21H103.6l-2.21-7.18c.76-4.63,3.72-7.1,5-10.22,3.38-8.07,1.45-22,12.09-26.09l.43-.16.31-.09-.23,0C97.8,11.19,103.67,29.66,96.59,41.1l5.07,9.22s7.74-.75,8.46,2.53"/></g><g class="cls-39"><rect class="cls-25" x="40.99" y="3.99" width="43.43" height="48.85"/></g><g class="cls-40"><path class="cls-23" d="M61.44,52.85a4.21,4.21,0,0,0-4.21-4.21H55L50.1,41.48a44.7,44.7,0,0,0,8.75-1.91c20.73-6.82,7.5-27.73,25.56-31.68-25.83-.45-24,6-24.56,17-.32,6-1.72,11.88-14.21,14.55l7.48,11.24s7.09-.8,8.32,2.18"/></g><path class="cls-41" d="M49.45,24.55S43.84,13,55.09,6.44c-.66.22-1.3.46-1.93.72C44.32,11.82,45.93,23,45.93,23a4.61,4.61,0,0,1,3.52,1.6"/><g class="cls-42"><rect class="cls-21" x="105.45" width="29.24" height="33.07"/></g><g class="cls-43"><path class="cls-29" d="M117,22.55c.37-.38.72-.73,1-1a3.53,3.53,0,0,1,1.92-.94h-.05s4.69-11.14,14.81-12.07C134.69,8.53,122,7.26,117,22.55Z"/></g><g class="cls-44"><path class="cls-29" d="M118.94,5c-11,3.8-9.06,17.43-12.36,25.83l-1.13,2.25a12.44,12.44,0,0,1,2.72-1.7,10,10,0,0,0,3.55-2.51c-.75-8.38,0-19.74,8.28-24.1Z"/></g><g class="cls-45"><path class="cls-29" d="M118.94,5c-11.16,3.85-9.08,18.18-12.54,26.28a13.5,13.5,0,0,1-1,1.8c4.28-3.66,4-11.16,5.39-16.35,2.89-11.11,9-11.86,9.16-12a4.83,4.83,0,0,0-.86.17Z"/></g><g class="cls-46"><path class="cls-23" d="M54.59,48.88l.13.19h2.51A3.79,3.79,0,0,1,61,52.42h-9.4L41.68,37.67c3.51-1,7.29-2.86,8.89-6.28a6.52,6.52,0,0,0-.76-7.07,13.81,13.81,0,0,1-.66-1.83,15.64,15.64,0,0,1-.68-4.56,12,12,0,0,1,4.68-9.64c2.13-1.73,3.73-2.07,6.42-2.54C64,5,68.77,5.6,73.13,6.34c3.07.52,6.12,1.18,9.19,1.67a12.39,12.39,0,0,0-7,5.34,23.79,23.79,0,0,0-2.54,6.79c-.61,2.45-1.1,4.94-1.92,7.33a21.06,21.06,0,0,1-1,2.4,15.89,15.89,0,0,1-4.67,5.95,21.14,21.14,0,0,1-6.53,3.34,43.1,43.1,0,0,1-6,1.51c-.86.15-1.76.3-2.63.38l-.72.07.41.6,4.84,7.16m4.26-9.31c6.26-2.06,9.42-5.4,11.29-9.18h0l.15-.31C74.35,21.48,72,10.78,84.12,8l.29-.06c-7.78-1-17.14-3.9-24.92-2.56a29.49,29.49,0,0,0-4.4,1.11C43.84,13,49.45,24.55,49.45,24.55c2.82,3.2,1.95,10.27-8.46,12.86L51.36,52.85H61.44a4.21,4.21,0,0,0-4.21-4.21H55L50.1,41.48A44.7,44.7,0,0,0,58.85,39.57Z"/></g><g class="cls-47"><path class="cls-23" d="M103.19,48.76l.09.31h2.63a3.77,3.77,0,0,1,3.75,3.35c-3.18,0-6.37-.08-9.55,0q-3.27-5.82-6.52-11.65a69.12,69.12,0,0,0,2.26-11.89A41.16,41.16,0,0,1,98.71,17.4a17.73,17.73,0,0,1,6.66-7.73,29.35,29.35,0,0,1,10.88-3.91c-4.93,2.93-6.55,8.44-7.63,14.07-.39,2-.7,4-1.11,6A27.44,27.44,0,0,1,106,31.07l-.16.37A23.89,23.89,0,0,1,104,34.53c-.23.34-.45.68-.67,1A15.53,15.53,0,0,0,101,41.39v.1l0,.09c.74,2.4,1.47,4.79,2.21,7.18m2.72-.12H103.6l-2.21-7.18A16,16,0,0,1,104.18,35a25,25,0,0,0,2.24-3.8c3.38-8.08,1.45-22.08,12.14-26.11l.38-.14.31-.09A47.76,47.76,0,0,0,113.1,6h0C99.18,9.54,96.9,18.71,95.53,28.1c-.34,2.31-.63,4.63-1,6.88a39.7,39.7,0,0,1-1.4,5.83l6.74,12c3.39-.09,6.86,0,10.26,0A4.21,4.21,0,0,0,105.91,48.64Z"/></g><path class="cls-48" d="M72,31.33c-.46-.21-.89-.42-1.28-.63-.2-.1-.38-.2-.56-.31-1.87,3.78-5,7.12-11.29,9.18.43.64.95,1.43,1.54,2.28a22.68,22.68,0,0,1,15.86-4.37c1.76-.91,3.63-2,5.46-3.14a40.82,40.82,0,0,1-9.73-3M70.7,30.7c-.2-.1-.38-.2-.56-.31C70.32,30.5,70.5,30.6,70.7,30.7Z"/><path class="cls-48" d="M104.84,38a6.7,6.7,0,0,1,7.55-3l-.15-6.87c-2.14,3-4.4,2.83-6.79,4.87-.4.65-.83,1.3-1.27,2Z"/><g class="cls-49"><path class="cls-29" d="M119.11,20.81a3.67,3.67,0,0,1,.82-.22h-.05s4.69-11.14,14.81-12.07c0,0-10.13-.33-15.58,12.28"/></g><g class="cls-50"><path class="cls-23" d="M46.41,39.26c12.48-2.67,13.53-8.57,13.85-14.55.42-8-.1-13.63,9.42-15.89-10.32,2.15-9.4,7.82-9.83,16.06-.31,5.86-1.66,11.64-13.44,14.38"/></g><g class="cls-51"><path class="cls-23" d="M96.89,41.12C103.42,30.57,99,13.91,115,6.59c.24-.18.48-.36.74-.53-17.37,7.13-12.49,24.23-19.18,35,.74,1.34,5.22,9.21,5.52,9.19Z"/></g><g class="cls-52"><path class="cls-23" d="M75.64,21.52c-.76-.33-2-1-2.44-1.24a2.86,2.86,0,0,1-.07.28c.48.27,1.68.92,2.45,1.26A31.76,31.76,0,0,0,93.76,24c.6-.11,1.2-.25,1.81-.42l.8-.22c0-.12,0-.24.07-.35l-.8.23c-.6.16-1.2.3-1.79.42a31.71,31.71,0,0,1-18.21-2.1"/></g></svg>